<svg xmlns="http://www.w3.org/2000/svg" viewBox="0 0 100 100">
  <defs>
    <linearGradient id="g" x1="0%" y1="0%" x2="100%" y2="100%">
      <stop offset="0%" stop-color="#8b5cf6"/>
      <stop offset="100%" stop-color="#06b6d4"/>
    </linearGradient>
  </defs>
  <circle cx="50" cy="50" r="48" fill="#0a0b14" stroke="url(#g)" stroke-width="3"/>
  <path d="M50 20 C30 20 22 35 22 48 C22 62 32 72 42 76 L42 82 C42 84 44 86 46 86 L54 86 C56 86 58 84 58 82 L58 76 C68 72 78 62 78 48 C78 35 70 20 50 20Z" fill="url(#g)" opacity="0.9"/>
  <circle cx="40" cy="44" r="4" fill="#0a0b14"/>
  <circle cx="60" cy="44" r="4" fill="#0a0b14"/>
  <path d="M38 56 Q50 66 62 56" fill="none" stroke="#0a0b14" stroke-width="3" stroke-linecap="round"/>
</svg>
